<?xml version="1.0" encoding="UTF-8"?>
<svg id="Layer_2" data-name="Layer 2" xmlns="http://www.w3.org/2000/svg" width="115.33" height="115.33" viewBox="0 0 115.33 115.33">
  <g id="Layer_1-2" data-name="Layer 1">
    <path d="m103.96,0H11.38C5.09,0,0,5.09,0,11.38v92.58c0,6.28,5.09,11.38,11.38,11.38h92.58c6.28,0,11.38-5.09,11.38-11.38V11.38c0-6.28-5.09-11.38-11.38-11.38ZM14.96,23.55c0-5.23,5.09-9.46,11.38-9.46h7.29c2.26,0,4.08,1.83,4.08,4.08v24.36H14.96v-18.98Zm44.21,62.52c-1,2.83-2.54,5.4-4.5,7.58-.56.63-1.16,1.23-1.79,1.79-2.19,1.96-4.76,3.5-7.58,4.5-2.37.84-4.92,1.29-7.58,1.29h-11.38c-6.28,0-11.38-5.09-11.38-11.38v-34.13h22.75c2.66,0,5.21.46,7.58,1.29,2.83,1,5.4,2.54,7.58,4.5.63.56,1.23,1.16,1.79,1.79,1.96,2.19,3.5,4.76,4.5,7.58.84,2.37,1.29,4.92,1.29,7.58s-.46,5.21-1.29,7.58Zm41.22,5.7c0,5.23-5.09,9.46-11.38,9.46h-11.38v-24.36c0-2.25,1.83-4.08,4.08-4.08h18.67v18.98Zm0-32.19h-22.75c-2.66,0-5.21-.46-7.58-1.29-2.83-1-5.4-2.54-7.58-4.5-.63-.56-1.23-1.16-1.79-1.79-1.96-2.19-3.5-4.76-4.5-7.58-.84-2.37-1.29-4.92-1.29-7.58s.46-5.21,1.29-7.58c1-2.83,2.54-5.4,4.5-7.58.56-.63,1.16-1.23,1.79-1.79,2.19-1.96,4.76-3.5,7.58-4.5,2.37-.84,4.92-1.29,7.58-1.29h11.38c6.28,0,11.38,5.09,11.38,11.38v34.13Z" style="fill: #ff4d00;"/>
  </g>
</svg>