<?xml version="1.0" encoding="UTF-8"?>
<svg id="Layer_2" data-name="Layer 2" xmlns="http://www.w3.org/2000/svg" width="471.65" height="115.33" viewBox="0 0 471.65 115.33">
  <g id="Layer_1-2" data-name="Layer 1">
    <g>
      <path d="m103.96,0H11.38C5.09,0,0,5.09,0,11.38v92.58c0,6.28,5.09,11.38,11.38,11.38h92.58c6.28,0,11.38-5.09,11.38-11.38V11.38c0-6.28-5.09-11.38-11.38-11.38ZM14.96,23.55c0-5.23,5.09-9.46,11.38-9.46h7.29c2.26,0,4.08,1.83,4.08,4.08v24.36H14.96v-18.98Zm44.21,62.52c-1,2.83-2.54,5.4-4.5,7.58-.56.63-1.16,1.23-1.79,1.79-2.19,1.96-4.76,3.5-7.58,4.5-2.37.84-4.92,1.29-7.58,1.29h-11.38c-6.28,0-11.38-5.09-11.38-11.38v-34.13h22.75c2.66,0,5.21.46,7.58,1.29,2.83,1,5.4,2.54,7.58,4.5.63.56,1.23,1.16,1.79,1.79,1.96,2.19,3.5,4.76,4.5,7.58.84,2.37,1.29,4.92,1.29,7.58s-.46,5.21-1.29,7.58Zm41.22,5.7c0,5.23-5.09,9.46-11.38,9.46h-11.38v-24.36c0-2.25,1.83-4.08,4.08-4.08h18.67v18.98Zm0-32.19h-22.75c-2.66,0-5.21-.46-7.58-1.29-2.83-1-5.4-2.54-7.58-4.5-.63-.56-1.23-1.16-1.79-1.79-1.96-2.19-3.5-4.76-4.5-7.58-.84-2.37-1.29-4.92-1.29-7.58s.46-5.21,1.29-7.58c1-2.83,2.54-5.4,4.5-7.58.56-.63,1.16-1.23,1.79-1.79,2.19-1.96,4.76-3.5,7.58-4.5,2.37-.84,4.92-1.29,7.58-1.29h11.38c6.28,0,11.38,5.09,11.38,11.38v34.13Z" style="fill: #3d3736;"/>
      <g>
        <path d="m141.61,94.39V24.26h17.23c9.19,0,15.98,1.76,20.37,5.27,4.39,3.51,6.58,8.93,6.58,16.27,0,6.8-2.21,12.13-6.63,15.99-4.42,3.86-10.54,5.79-18.36,5.79h-4.75v26.82h-14.44Zm15.47-38.16h2.16c4.09,0,7.07-.85,8.92-2.54,1.85-1.69,2.78-4.41,2.78-8.16,0-3.45-.93-5.97-2.78-7.56-1.86-1.58-4.83-2.37-8.92-2.37h-2.16v20.63Z" style="fill: #3d3736;"/>
        <path d="m237.53,93.36h-12.65l.18-6.67c-1.77,2.93-3.9,5.09-6.39,6.46-2.49,1.37-5.52,2.06-9.1,2.06-5.96,0-10.76-2.29-14.42-6.86-3.65-4.57-5.48-10.61-5.48-18.12s1.8-13.92,5.39-18.29c3.59-4.37,8.58-6.55,14.97-6.55,3.33,0,6.26.77,8.78,2.32,2.52,1.55,4.64,3.85,6.35,6.91v-7.66h12.38v46.41Zm-12.27-22.91c0-4.17-1.05-7.46-3.15-9.89-2.1-2.43-4.93-3.65-8.5-3.65s-6.54,1.21-8.64,3.62c-2.1,2.41-3.15,5.72-3.15,9.92s1.03,7.46,3.1,9.8c2.07,2.34,4.93,3.5,8.59,3.5s6.61-1.17,8.66-3.5c2.05-2.34,3.08-5.6,3.08-9.8Z" style="fill: #3d3736;"/>
        <path d="m250.93,93.36V20.13h13.41v73.23h-13.41Z" style="fill: #3d3736;"/>
        <path d="m324.16,93.36h-12.65l.18-6.67c-1.77,2.93-3.9,5.09-6.39,6.46-2.49,1.37-5.52,2.06-9.1,2.06-5.96,0-10.76-2.29-14.42-6.86-3.65-4.57-5.48-10.61-5.48-18.12s1.8-13.92,5.39-18.29c3.59-4.37,8.58-6.55,14.97-6.55,3.33,0,6.26.77,8.78,2.32,2.52,1.55,4.64,3.85,6.35,6.91v-7.66h12.38v46.41Zm-12.04-22.91c0-4.17-1.05-7.46-3.15-9.89-2.1-2.43-4.93-3.65-8.5-3.65s-6.54,1.21-8.64,3.62c-2.1,2.41-3.15,5.72-3.15,9.92s1.03,7.46,3.1,9.8c2.07,2.34,4.93,3.5,8.59,3.5s6.61-1.17,8.66-3.5c2.05-2.34,3.08-5.6,3.08-9.8Z" style="fill: #3d3736;"/>
        <path d="m382.95,93.36h-12.65l.18-6.66c-1.77,2.93-3.9,5.08-6.39,6.45-2.49,1.37-5.52,2.06-9.1,2.06-5.96,0-10.77-2.28-14.42-6.85-3.65-4.57-5.48-10.6-5.48-18.09s1.8-13.95,5.39-18.33c3.59-4.38,8.58-6.57,14.97-6.57,3.27,0,6.14.77,8.62,2.31,2.48,1.54,4.8,3.98,6.97,7.32-.15-1.13-.27-2.39-.34-3.76-.08-1.37-.12-2.94-.12-4.7v-26.41h12.38v73.23Zm-11.61-22.91c0-4.17-1.05-7.46-3.15-9.89-2.1-2.43-4.93-3.65-8.5-3.65s-6.54,1.19-8.64,3.57c-2.1,2.38-3.15,5.67-3.15,9.87s1.03,7.48,3.1,9.85c2.07,2.37,4.93,3.55,8.59,3.55s6.61-1.17,8.66-3.5c2.05-2.34,3.08-5.6,3.08-9.8Z" style="fill: #3d3736;"/>
        <path d="m396.19,28.22c0-2.15.77-3.99,2.32-5.54,1.55-1.55,3.39-2.32,5.54-2.32s4.05.77,5.61,2.3c1.56,1.53,2.34,3.38,2.34,5.56s-.78,4.04-2.34,5.59c-1.56,1.55-3.43,2.32-5.61,2.32s-3.99-.79-5.54-2.37c-1.55-1.58-2.32-3.42-2.32-5.54Zm1.2,65.14v-46.41h13.41v46.41h-13.41Z" style="fill: #3d3736;"/>
        <path d="m424.21,93.36v-46.41h13.41v7.29c2.44-3.03,5.06-5.26,7.86-6.69,2.8-1.43,5.91-2.15,9.33-2.15,3.61,0,6.64.61,9.09,1.82,2.45,1.21,4.39,3.07,5.82,5.56.7,1.29,1.19,2.75,1.49,4.38.3,1.62.45,4.17.45,7.64v28.58h-13.41v-22.96c0-5.71-.68-9.48-2.03-11.31-1.36-1.83-3.68-2.75-6.97-2.75-1.9,0-3.66.39-5.25,1.16-1.6.77-2.93,1.87-3.99,3.29-.84,1.1-1.45,2.37-1.82,3.79s-.56,3.58-.56,6.49v22.3h-13.41Z" style="fill: #3d3736;"/>
      </g>
    </g>
  </g>
</svg>