<?xml version="1.0" encoding="UTF-8"?>
<svg id="Layer_2" data-name="Layer 2" xmlns="http://www.w3.org/2000/svg" width="330.04" height="75.07" viewBox="0 0 330.04 75.07">
  <g id="Layer_1-2" data-name="Layer 1">
    <g>
      <path d="m0,74.26V4.13h17.23c9.19,0,15.98,1.76,20.37,5.27,4.39,3.51,6.58,8.93,6.58,16.27,0,6.8-2.21,12.13-6.63,15.99-4.42,3.86-10.54,5.79-18.36,5.79h-4.75v26.82H0Zm15.47-38.16h2.16c4.09,0,7.07-.85,8.92-2.54,1.85-1.69,2.78-4.41,2.78-8.16,0-3.45-.93-5.97-2.78-7.56-1.86-1.58-4.83-2.37-8.92-2.37h-2.16v20.63Z" style="fill: #ff4d00;"/>
      <path d="m95.92,73.23h-12.65l.18-6.67c-1.77,2.93-3.9,5.09-6.39,6.46-2.49,1.37-5.52,2.06-9.1,2.06-5.96,0-10.76-2.29-14.42-6.86-3.65-4.57-5.48-10.61-5.48-18.12s1.8-13.92,5.39-18.29c3.59-4.37,8.58-6.55,14.97-6.55,3.33,0,6.26.77,8.78,2.32,2.52,1.55,4.64,3.85,6.35,6.91v-7.66h12.38v46.41Zm-12.27-22.91c0-4.17-1.05-7.46-3.15-9.89-2.1-2.43-4.93-3.65-8.5-3.65s-6.54,1.21-8.64,3.62c-2.1,2.41-3.15,5.72-3.15,9.92s1.03,7.46,3.1,9.8c2.07,2.34,4.93,3.5,8.59,3.5s6.61-1.17,8.66-3.5c2.05-2.34,3.08-5.6,3.08-9.8Z" style="fill: #ff4d00;"/>
      <path d="m109.33,73.23V0h13.41v73.23h-13.41Z" style="fill: #ff4d00;"/>
      <path d="m182.55,73.23h-12.65l.18-6.67c-1.77,2.93-3.9,5.09-6.39,6.46-2.49,1.37-5.52,2.06-9.1,2.06-5.96,0-10.76-2.29-14.42-6.86-3.65-4.57-5.48-10.61-5.48-18.12s1.8-13.92,5.39-18.29c3.59-4.37,8.58-6.55,14.97-6.55,3.33,0,6.26.77,8.78,2.32,2.52,1.55,4.64,3.85,6.35,6.91v-7.66h12.38v46.41Zm-12.04-22.91c0-4.17-1.05-7.46-3.15-9.89-2.1-2.43-4.93-3.65-8.5-3.65s-6.54,1.21-8.64,3.62c-2.1,2.41-3.15,5.72-3.15,9.92s1.03,7.46,3.1,9.8c2.07,2.34,4.93,3.5,8.59,3.5s6.61-1.17,8.66-3.5c2.05-2.34,3.08-5.6,3.08-9.8Z" style="fill: #ff4d00;"/>
      <path d="m241.34,73.23h-12.65l.18-6.66c-1.77,2.93-3.9,5.08-6.39,6.45-2.49,1.37-5.52,2.06-9.1,2.06-5.96,0-10.77-2.28-14.42-6.85-3.65-4.57-5.48-10.6-5.48-18.09s1.8-13.95,5.39-18.33c3.59-4.38,8.58-6.57,14.97-6.57,3.27,0,6.14.77,8.62,2.31,2.48,1.54,4.8,3.98,6.97,7.32-.15-1.13-.27-2.39-.34-3.76-.08-1.37-.12-2.94-.12-4.7V0h12.38v73.23Zm-11.61-22.91c0-4.17-1.05-7.46-3.15-9.89-2.1-2.43-4.93-3.65-8.5-3.65s-6.54,1.19-8.64,3.57c-2.1,2.38-3.15,5.67-3.15,9.87s1.03,7.48,3.1,9.85c2.07,2.37,4.93,3.55,8.59,3.55s6.61-1.17,8.66-3.5c2.05-2.34,3.08-5.6,3.08-9.8Z" style="fill: #ff4d00;"/>
      <path d="m254.59,8.09c0-2.15.77-3.99,2.32-5.54,1.55-1.55,3.39-2.32,5.54-2.32s4.05.77,5.61,2.3c1.56,1.53,2.34,3.38,2.34,5.56s-.78,4.04-2.34,5.59c-1.56,1.55-3.43,2.32-5.61,2.32s-3.99-.79-5.54-2.37c-1.55-1.58-2.32-3.42-2.32-5.54Zm1.2,65.14V26.82h13.41v46.41h-13.41Z" style="fill: #ff4d00;"/>
      <path d="m282.6,73.23V26.82h13.41v7.29c2.44-3.03,5.06-5.26,7.86-6.69,2.8-1.43,5.91-2.15,9.33-2.15,3.61,0,6.64.61,9.09,1.82,2.45,1.21,4.39,3.07,5.82,5.56.7,1.29,1.19,2.75,1.49,4.38.3,1.62.45,4.17.45,7.64v28.58h-13.41v-22.96c0-5.71-.68-9.48-2.03-11.31-1.36-1.83-3.68-2.75-6.97-2.75-1.9,0-3.66.39-5.25,1.16-1.6.77-2.93,1.87-3.99,3.29-.84,1.1-1.45,2.37-1.82,3.79s-.56,3.58-.56,6.49v22.3h-13.41Z" style="fill: #ff4d00;"/>
    </g>
  </g>
</svg>